<svg width="603" height="170" viewBox="0 0 603 170" fill="none" xmlns="http://www.w3.org/2000/svg">
<g clip-path="url(#clip0_359_7057)">
<path d="M32.9515 148.481C32.9515 150.571 33.9354 152.329 35.9199 153.773C37.9043 155.216 40.3223 155.979 43.1572 156.062H55.8142C56.2144 156.062 56.4812 156.095 56.5813 156.178C57.8987 156.394 58.5657 157.041 58.5657 158.07V167.659C58.5657 169.069 57.6485 169.782 55.8142 169.782H43.1572C39.5885 169.782 36.1366 169.301 32.7848 168.339C28.9493 167.294 25.5641 165.701 22.6459 163.544C19.7109 161.388 17.543 158.899 16.1423 156.079C14.8249 153.624 14.1745 151.135 14.1745 148.613V56.5043H2.9016C2.38465 56.5043 2.08449 56.4712 1.98443 56.3882C0.667035 56.0896 0 55.4592 0 54.4969V44.7916C0 43.4478 0.967201 42.7842 2.9016 42.7842H14.1912V4.85898C14.1912 4.70967 14.2079 4.59354 14.2579 4.52717C14.3079 4.46081 14.3413 4.34468 14.3413 4.19537C14.7415 3.2995 15.6587 2.85156 17.0594 2.85156H30.0666C31.9843 2.85156 32.9349 3.51517 32.9349 4.85898V42.7676H55.2139C55.6141 42.7676 55.8809 42.8008 55.9809 42.8838C57.2983 43.0994 57.9654 43.7465 57.9654 44.7751V54.4803C57.9654 55.8241 57.0482 56.4877 55.2139 56.4877H32.9349V148.481H32.9515Z" fill="white"/>
<path d="M84.9973 167.249C84.9973 169.007 84.0301 169.887 82.0957 169.887H68.9717C67.5543 169.887 66.6371 169.306 66.2202 168.128V5.27847C66.2202 3.51991 67.1374 2.64062 68.9717 2.64062H82.0957C83.6132 2.64062 84.5303 3.27105 84.8472 4.5485C84.9472 4.64804 84.9973 4.89689 84.9973 5.27847V167.265V167.249Z" fill="white"/>
<path d="M156.287 2.73438C158.021 2.73438 158.972 3.39798 159.188 4.74179V100.185C159.188 102.641 158.671 104.98 157.671 107.203C156.654 109.426 155.236 111.483 153.402 113.341C151.567 115.199 149.383 116.825 146.848 118.186C144.297 119.563 141.512 120.624 138.46 121.371V167.757C138.46 168.355 138.16 168.869 137.543 169.317C136.926 169.765 136.226 169.98 135.409 169.98H121.534C120.717 169.98 120.033 169.765 119.483 169.317C118.916 168.869 118.649 168.355 118.649 167.757V121.371C115.598 120.624 112.796 119.563 110.261 118.186C107.71 116.809 105.509 115.199 103.624 113.341C101.74 111.483 100.289 109.443 99.2719 107.203C98.2547 104.98 97.7544 102.624 97.7544 100.185V4.97405C97.7544 4.37681 98.0546 3.86251 98.6716 3.41457C99.2886 2.96664 99.989 2.75097 100.806 2.75097H114.68C115.498 2.75097 116.181 2.96664 116.732 3.41457C117.282 3.86251 117.565 4.37681 117.565 4.97405V100.202C117.565 102.359 118.633 104.217 120.767 105.776C122.902 107.336 125.503 108.115 128.555 108.115C131.606 108.115 134.041 107.336 136.176 105.776C138.31 104.217 139.377 102.359 139.377 100.202V4.97405C139.377 4.37681 139.678 3.86251 140.295 3.41457C140.912 2.96664 141.612 2.75097 142.429 2.75097H156.303L156.287 2.73438ZM159.955 15.4425V15.3264C159.955 15.4757 159.905 15.542 159.805 15.542L159.955 15.4259V15.4425Z" fill="white"/>
<path d="M199.526 0C203.795 0 207.781 0.613838 211.5 1.80833C215.218 3.01942 218.47 4.64526 221.255 6.68586C224.057 8.72646 226.258 11.1486 227.892 13.9524C229.51 16.7561 230.327 19.7424 230.327 22.9111V167.843C230.127 169.204 229.109 169.884 227.275 169.884H213.401C212.584 169.884 211.9 169.652 211.35 169.204C210.783 168.756 210.516 168.225 210.516 167.611V114.655H188.704V167.611C188.704 168.225 188.404 168.739 187.787 169.204C187.17 169.668 186.469 169.884 185.652 169.884H171.778C170.961 169.884 170.277 169.652 169.727 169.204C169.16 168.756 168.893 168.225 168.893 167.611V22.9111C168.893 19.7424 169.71 16.7561 171.327 13.9524C172.945 11.1486 175.146 8.74305 177.881 6.68586C180.616 4.62867 183.851 3.01942 187.57 1.80833C191.289 0.597248 195.274 0 199.543 0L199.526 0ZM210.516 22.9111C210.516 20.6382 209.449 18.7138 207.314 17.1211C205.18 15.5284 202.578 14.7321 199.526 14.7321C196.475 14.7321 194.04 15.5284 191.906 17.1211C189.771 18.7138 188.704 20.6382 188.704 22.9111V99.9229H210.516V22.9111Z" fill="white"/>
<path d="M381.894 147.368C381.894 150.487 381.077 153.407 379.459 156.128C377.825 158.848 375.624 161.204 372.822 163.212C370.021 165.219 366.769 166.812 363.067 168.006C359.348 169.201 355.413 169.798 351.244 169.798C347.075 169.798 343.356 169.284 339.804 168.238C336.235 167.193 333.1 165.75 330.349 163.892C327.597 165.75 324.445 167.193 320.893 168.238C317.325 169.284 313.573 169.798 309.604 169.798C305.335 169.798 301.333 169.201 297.631 168.006C293.912 166.812 290.693 165.219 287.942 163.212C285.19 161.204 283.006 158.848 281.388 156.128C279.754 153.407 278.954 150.503 278.954 147.368V4.85792C278.954 3.44775 279.921 2.73438 281.855 2.73438H295.73C297.664 2.73438 298.631 3.44775 298.631 4.85792V147.368C298.631 149.525 299.698 151.383 301.833 152.942C303.967 154.502 306.569 155.281 309.621 155.281C312.672 155.281 315.09 154.535 317.175 153.058C319.259 151.565 320.36 149.757 320.46 147.6V4.85792C320.46 3.89569 321.177 3.23208 322.594 2.85051C322.694 2.78415 322.995 2.73438 323.512 2.73438H337.553C338.27 2.73438 338.87 2.91687 339.387 3.29844C339.887 3.66343 340.204 4.11136 340.304 4.64225V147.6C340.404 149.757 341.522 151.582 343.656 153.058C345.791 154.551 348.325 155.281 351.277 155.281C354.229 155.281 356.763 154.502 358.898 152.942C361.032 151.383 362.1 149.525 362.1 147.368V4.85792C362.1 3.44775 363.067 2.73438 365.001 2.73438H378.876C379.693 2.73438 380.376 2.91687 380.927 3.29844C381.477 3.66343 381.81 4.11136 381.911 4.64225V147.368H381.894Z" fill="white"/>
<path d="M425.034 0C429.303 0 433.289 0.613838 437.007 1.80833C440.726 3.01942 443.978 4.64526 446.763 6.68586C449.548 8.72646 451.765 11.1486 453.4 13.9524C455.017 16.7561 455.834 19.7424 455.834 22.9111V167.843C455.634 169.204 454.617 169.884 452.783 169.884H438.908C438.091 169.884 437.408 169.652 436.857 169.204C436.29 168.756 436.023 168.225 436.023 167.611V114.655H414.211V167.611C414.211 168.225 413.911 168.739 413.294 169.204C412.677 169.668 411.977 169.884 411.16 169.884H397.285C396.468 169.884 395.784 169.652 395.234 169.204C394.667 168.756 394.4 168.225 394.4 167.611V22.9111C394.4 19.7424 395.218 16.7561 396.835 13.9524C398.453 11.1486 400.654 8.74305 403.389 6.68586C406.124 4.62867 409.359 3.01942 413.077 1.80833C416.796 0.597248 420.782 0 425.051 0L425.034 0ZM436.023 25.383C436.023 23.1599 434.956 21.2521 432.822 19.6926C430.687 18.1331 428.086 17.3534 425.034 17.3534C421.982 17.3534 419.548 18.1331 417.413 19.6926C415.279 21.2521 414.211 23.1434 414.211 25.383V101.101H436.023V25.383Z" fill="white"/>
<path d="M509.831 22.795C509.831 20.6051 508.764 18.7138 506.629 17.1211C504.495 15.5284 501.944 14.7321 499.009 14.7321C496.074 14.7321 493.372 15.5284 491.221 17.1211C489.07 18.7138 488.019 20.6051 488.019 22.795V146.973C488.019 149.246 489.086 151.17 491.221 152.763C493.356 154.355 495.957 155.152 499.009 155.152C502.06 155.152 504.495 154.355 506.629 152.763C508.764 151.17 509.831 149.246 509.831 146.973V72.6817H501.894C501.076 72.6817 500.376 72.4827 499.759 72.0513C499.142 71.6366 498.842 71.1223 498.842 70.525V60.2059C498.842 59.6087 499.142 59.0778 499.759 58.6132C500.376 58.1487 501.076 57.933 501.894 57.933H526.607C527.424 57.933 528.125 58.1653 528.742 58.6132C529.359 59.0612 529.659 59.5921 529.659 60.2059V146.973C529.659 150.141 528.842 153.144 527.224 155.931C525.59 158.735 523.405 161.141 520.671 163.198C517.919 165.239 514.701 166.864 510.982 168.076C507.263 169.287 503.278 169.884 499.009 169.884C494.74 169.884 490.737 169.287 487.035 168.076C483.317 166.864 480.065 165.239 477.28 163.198C474.495 161.157 472.277 158.735 470.643 155.931C469.009 153.128 468.208 150.141 468.208 146.973V22.795C468.208 19.6262 469.025 16.6566 470.643 13.886C472.261 11.132 474.478 8.72646 477.28 6.68586C480.081 4.64526 483.333 3.01942 487.035 1.80833C490.754 0.597248 494.74 0 499.009 0C503.278 0 507.263 0.613838 510.982 1.80833C514.684 3.01942 517.919 4.64526 520.671 6.68586C523.422 8.72646 525.607 11.132 527.224 13.886C528.842 16.64 529.659 19.6096 529.659 22.795V36.7473C529.459 38.1077 528.492 38.7879 526.757 38.7879H512.716C511.899 38.7879 511.215 38.5557 510.665 38.1077C510.098 37.6598 509.831 37.1289 509.831 36.5151V22.795Z" fill="white"/>
<path d="M603.001 167.991C602.9 168.505 602.567 168.953 602.017 169.334C601.45 169.699 600.766 169.898 599.949 169.898H586.075C584.14 169.898 583.173 169.185 583.173 167.775V115.483H561.361V167.775C561.361 168.372 561.061 168.87 560.444 169.285C559.827 169.699 559.126 169.898 558.309 169.898H544.435C542.5 169.898 541.533 169.185 541.533 167.775V4.97511C541.533 3.56494 542.5 2.85156 544.435 2.85156H558.309C559.126 2.85156 559.827 3.05064 560.444 3.4654C561.061 3.88016 561.361 4.37786 561.361 4.97511V100.983H583.173V4.97511C583.173 3.56494 584.14 2.85156 586.075 2.85156H599.949C601.783 2.85156 602.8 3.48199 603.001 4.74285V167.991Z" fill="white"/>
</g>
<defs>
<clipPath id="clip0_359_7057">
<rect width="603" height="170" fill="white"/>
</clipPath>
</defs>
</svg>
