<svg width="37" height="35" viewBox="0 0 37 35" fill="none" xmlns="http://www.w3.org/2000/svg">
<path d="M7.00977 0.772461C7.22274 0.772461 7.4271 0.807332 7.58398 0.915039C7.75781 1.03455 7.83691 1.21719 7.83691 1.41895V8.6582H12.0186C12.065 8.6582 12.1114 8.6609 12.1533 8.66699C12.1732 8.66988 12.2077 8.67561 12.2461 8.69043C12.3924 8.71915 12.5318 8.77454 12.6387 8.87598C12.7609 8.99201 12.8153 9.14357 12.8154 9.30469V11.2217C12.8154 11.418 12.7429 11.5999 12.5752 11.7217C12.4223 11.8325 12.2233 11.8682 12.0186 11.8682H7.83691V29.792C7.83691 30.1079 7.97778 30.3897 8.30566 30.6436L8.44434 30.7314C8.77551 30.9232 9.16717 31.0281 9.62695 31.04H12.1406C12.1868 31.0401 12.2327 31.0428 12.2744 31.0488C12.2946 31.0518 12.33 31.0579 12.3691 31.0732C12.5148 31.1021 12.6533 31.1568 12.7598 31.2578C12.882 31.3739 12.9364 31.5254 12.9365 31.6865V33.5811C12.9365 33.7796 12.8684 33.9663 12.7021 34.0938C12.5485 34.2114 12.3475 34.2499 12.1406 34.25H9.62109C8.89017 34.25 8.17876 34.1515 7.48828 33.9541V33.9531C6.69424 33.7404 5.9889 33.4136 5.37598 32.9688C4.76414 32.5247 4.30199 32.0054 3.99805 31.4092L3.89941 31.2148C3.68368 30.7588 3.57325 30.2915 3.57324 29.8145V11.8682H1.57715C1.52232 11.8682 1.47029 11.8667 1.42578 11.8613C1.40349 11.8586 1.37734 11.8537 1.35156 11.8467C1.34 11.8435 1.32359 11.8383 1.30469 11.8301C1.1624 11.7942 1.02902 11.7367 0.926758 11.6396C0.808392 11.5273 0.750012 11.3816 0.75 11.2217V9.30469C0.7501 9.10308 0.829218 8.92119 1.00293 8.80176C1.15984 8.69398 1.36411 8.6582 1.57715 8.6582H3.57324V1.22461L3.62207 1.18848L3.62598 1.18164C3.76556 0.878043 4.07024 0.772529 4.39941 0.772461H7.00977ZM36.25 29.5723C36.25 30.2352 36.0756 30.8595 35.7295 31.4404L35.7275 31.4434C35.3839 32.0044 34.9136 32.4914 34.3223 32.9053L34.3213 32.9043C33.7508 33.3176 33.0799 33.6435 32.3115 33.8848L32.3125 33.8857C31.5573 34.1293 30.7519 34.25 29.8984 34.25C29.0679 34.25 28.2856 34.1443 27.5527 33.9316C26.8811 33.7367 26.2767 33.4686 25.7402 33.1289C25.2037 33.4687 24.5994 33.7367 23.9277 33.9316C23.1954 34.1442 22.4233 34.25 21.6123 34.25C20.7391 34.25 19.9136 34.1289 19.1387 33.8857H19.1367C18.3865 33.6437 17.7246 33.3162 17.1543 32.9023C16.584 32.4884 16.1256 32.0023 15.7832 31.4434L15.7812 31.4404C15.4351 30.8594 15.2608 30.2352 15.2607 29.5723V1.41895C15.2607 1.21531 15.335 1.02777 15.5078 0.902344C15.6657 0.787786 15.872 0.750045 16.0869 0.75H18.8496C19.0646 0.750004 19.2708 0.78781 19.4287 0.902344C19.6015 1.02777 19.6768 1.21528 19.6768 1.41895V29.5723C19.6768 29.8992 19.8339 30.1981 20.2109 30.4717C20.5867 30.7442 21.0496 30.8857 21.6123 30.8857C22.1556 30.8857 22.5973 30.7507 22.9521 30.4932L22.957 30.4902C23.3285 30.2335 23.4974 29.9427 23.5166 29.6162V1.41895C23.5166 1.25302 23.5825 1.10574 23.7031 0.993164C23.8095 0.894072 23.9495 0.831449 24.1016 0.789062C24.1209 0.780618 24.1377 0.774679 24.1494 0.771484C24.1751 0.764501 24.2004 0.759525 24.2227 0.756836C24.2673 0.751442 24.319 0.750003 24.374 0.75H27.167C27.354 0.750039 27.5284 0.799795 27.6777 0.908203C27.8195 1.01108 27.9233 1.14991 27.958 1.32617L27.9629 1.35059V29.6045L27.9756 29.7266C28.0234 30.0086 28.1943 30.2627 28.5234 30.4902C28.901 30.7511 29.3555 30.8857 29.8984 30.8857C30.4389 30.8857 30.8923 30.7454 31.2695 30.4717C31.6465 30.1981 31.8037 29.8992 31.8037 29.5723V1.41895C31.8037 1.2154 31.8782 1.02777 32.0508 0.902344C32.2087 0.787718 32.4158 0.75 32.6309 0.75H35.3926C35.5844 0.75 35.7645 0.79384 35.916 0.897461L35.917 0.896484C35.9198 0.898163 35.922 0.900638 35.9248 0.902344C35.9278 0.904443 35.9316 0.906055 35.9346 0.908203L35.9336 0.90918C36.0848 1.00509 36.2084 1.13968 36.2451 1.32617L36.25 1.35059V29.5723Z" fill="white" stroke="white" stroke-width="0.5"/>
</svg>
